<!-- Generated by IcoMoon.io -->
<svg version="1.1" xmlns="http://www.w3.org/2000/svg" width="17" height="17" viewBox="0 0 17 17">
<title>envelope</title>
<path fill="#777" d="M15.406 2.125h-13.813c-0.88 0-1.594 0.713-1.594 1.594v9.563c0 0.88 0.713 1.594 1.594 1.594h13.813c0.88 0 1.594-0.714 1.594-1.594v-9.563c0-0.88-0.713-1.594-1.594-1.594zM1.456 13.807l-0.388-0.389 4.382-4.382 0.388 0.389-4.382 4.382zM15.544 13.807l-4.382-4.382 0.388-0.389 4.382 4.382-0.388 0.389zM9.031 10.266v0.359h-1.063v-0.359l-6.905-6.402 0.676-0.676 6.76 6.268 6.76-6.268 0.676 0.676-6.905 6.402z"></path>
</svg>
