<!-- Generated by IcoMoon.io -->
<svg version="1.1" xmlns="http://www.w3.org/2000/svg" width="17" height="17" viewBox="0 0 17 17">
<title>mobile</title>
<path fill="#777" d="M11.688 0h-6.375c-1.174 0-2.125 0.951-2.125 2.125v12.75c0 1.174 0.951 2.125 2.125 2.125h6.375c1.174 0 2.125-0.951 2.125-2.125v-12.75c0-1.174-0.951-2.125-2.125-2.125zM8.766 1.594h1.594c0.146 0 0.266 0.119 0.266 0.266s-0.12 0.266-0.266 0.266h-1.594c-0.147 0-0.266-0.119-0.266-0.266s0.119-0.266 0.266-0.266zM6.906 1.063c0.293 0 0.531 0.238 0.531 0.531s-0.238 0.531-0.531 0.531-0.531-0.238-0.531-0.531 0.238-0.531 0.531-0.531zM9.563 15.406c0 0.294-0.237 0.531-0.531 0.531h-1.063c-0.293 0-0.531-0.237-0.531-0.531v-1.063c0-0.294 0.238-0.531 0.531-0.531h1.063c0.294 0 0.531 0.237 0.531 0.531v1.063zM12.75 12.219c0 0.294-0.237 0.531-0.531 0.531h-7.438c-0.293 0-0.531-0.237-0.531-0.531v-8.5c0-0.293 0.238-0.531 0.531-0.531h7.438c0.294 0 0.531 0.238 0.531 0.531v8.5z"></path>
</svg>
