<!-- Generated by IcoMoon.io -->
<svg version="1.1" xmlns="http://www.w3.org/2000/svg" width="17" height="17" viewBox="0 0 17 17">
<title>search</title>
<rect fill="#fff" x="0" y="0" width="17" height="17"></rect>
<path fill="#58606b" d="M10.321 10.852c-0.738 0.526-1.642 0.836-2.618 0.836-2.494 0-4.516-2.022-4.516-4.516s2.022-4.516 4.516-4.516c2.494 0 4.516 2.022 4.516 4.516 0 0.976-0.309 1.879-0.836 2.618l2.967 2.967c0.292 0.292 0.29 0.76-0 1.050l-0.012 0.012c-0.289 0.289-0.76 0.29-1.050 0l-2.967-2.967zM7.703 10.625c1.907 0 3.453-1.546 3.453-3.453s-1.546-3.453-3.453-3.453c-1.907 0-3.453 1.546-3.453 3.453s1.546 3.453 3.453 3.453v0z"></path>
</svg>
